<?xml version="1.0" encoding="iso-8859-1"?>
<!-- Generator: Adobe Illustrator 16.0.0, SVG Export Plug-In . SVG Version: 6.00 Build 0)  -->
<!DOCTYPE svg PUBLIC "-//W3C//DTD SVG 1.1//EN" "http://www.w3.org/Graphics/SVG/1.1/DTD/svg11.dtd">
<svg version="1.1" id="Capa_1" xmlns="http://www.w3.org/2000/svg" xmlns:xlink="http://www.w3.org/1999/xlink" x="0px" y="0px"
	 width="612px" height="612px" viewBox="0 0 612 612" style="enable-background:new 0 0 612 612;" xml:space="preserve">
<g>
	<g id="Up">
		<g>
			<path d="M432.32,334.42L327.133,219.67c-5.432-5.91-13.081-9.295-21.133-9.295s-15.702,3.385-21.152,9.295L179.66,334.42
				l0.077,0.058c-4.686,5.125-7.612,11.857-7.612,19.335c0,15.836,12.852,28.688,28.688,28.688c8.377,0,15.835-3.634,21.076-9.353
				l0.077,0.058L306,281.52l84.035,91.685l0.076-0.058c5.24,5.719,12.719,9.353,21.076,9.353c15.836,0,28.688-12.852,28.688-28.688
				c0-7.478-2.926-14.21-7.611-19.335L432.32,334.42z M306,0C137.012,0,0,137.012,0,306s137.012,306,306,306s306-137.012,306-306
				S474.988,0,306,0z M306,554.625C168.912,554.625,57.375,443.088,57.375,306S168.912,57.375,306,57.375
				S554.625,168.912,554.625,306S443.088,554.625,306,554.625z"/>
		</g>
	</g>
</g>
<g>
</g>
<g>
</g>
<g>
</g>
<g>
</g>
<g>
</g>
<g>
</g>
<g>
</g>
<g>
</g>
<g>
</g>
<g>
</g>
<g>
</g>
<g>
</g>
<g>
</g>
<g>
</g>
<g>
</g>
</svg>
